<mxfile host="app.diagrams.net" agent="Mozilla/5.0 (Windows NT 10.0; Win64; x64) AppleWebKit/537.36 (KHTML, like Gecko) Chrome/131.0.0.0 Safari/537.36" version="26.0.3">
  <diagram name="StrÃ¡nka-1" id="qQzrX5V3mN4czIYkLcs4">
    <mxGraphModel dx="1434" dy="738" grid="1" gridSize="10" guides="1" tooltips="1" connect="1" arrows="1" fold="1" page="1" pageScale="1" pageWidth="827" pageHeight="1169" math="0" shadow="0">
      <root>
        <mxCell id="0" />
        <mxCell id="1" parent="0" />
        <mxCell id="uJHjMDp_AKYHHKTmzJsR-1" value="User Device" style="verticalAlign=top;align=left;spacingTop=8;spacingLeft=2;spacingRight=12;shape=cube;size=10;direction=south;fontStyle=4;html=1;whiteSpace=wrap;" vertex="1" parent="1">
          <mxGeometry x="120" y="140" width="160" height="110" as="geometry" />
        </mxCell>
        <mxCell id="uJHjMDp_AKYHHKTmzJsR-2" value="Web browser" style="html=1;whiteSpace=wrap;" vertex="1" parent="1">
          <mxGeometry x="140" y="180" width="110" height="50" as="geometry" />
        </mxCell>
        <mxCell id="uJHjMDp_AKYHHKTmzJsR-3" value="App server" style="verticalAlign=top;align=left;spacingTop=8;spacingLeft=2;spacingRight=12;shape=cube;size=10;direction=south;fontStyle=4;html=1;whiteSpace=wrap;" vertex="1" parent="1">
          <mxGeometry x="40" y="355" width="750" height="230" as="geometry" />
        </mxCell>
        <mxCell id="uJHjMDp_AKYHHKTmzJsR-4" value="LibraryApp" style="verticalAlign=top;align=left;spacingTop=8;spacingLeft=2;spacingRight=12;shape=cube;size=10;direction=south;fontStyle=4;html=1;whiteSpace=wrap;" vertex="1" parent="1">
          <mxGeometry x="59" y="405" width="700" height="160" as="geometry" />
        </mxCell>
        <mxCell id="uJHjMDp_AKYHHKTmzJsR-19" style="edgeStyle=orthogonalEdgeStyle;rounded=0;orthogonalLoop=1;jettySize=auto;html=1;exitX=1;exitY=0.5;exitDx=0;exitDy=0;entryX=0;entryY=0.5;entryDx=0;entryDy=0;endArrow=none;endFill=0;" edge="1" parent="1" source="uJHjMDp_AKYHHKTmzJsR-5" target="uJHjMDp_AKYHHKTmzJsR-6">
          <mxGeometry relative="1" as="geometry" />
        </mxCell>
        <mxCell id="uJHjMDp_AKYHHKTmzJsR-5" value="REST Controller" style="html=1;whiteSpace=wrap;" vertex="1" parent="1">
          <mxGeometry x="79" y="495" width="111" height="50" as="geometry" />
        </mxCell>
        <mxCell id="uJHjMDp_AKYHHKTmzJsR-22" style="edgeStyle=orthogonalEdgeStyle;rounded=0;orthogonalLoop=1;jettySize=auto;html=1;exitX=1;exitY=0.5;exitDx=0;exitDy=0;entryX=0;entryY=0.5;entryDx=0;entryDy=0;endArrow=none;endFill=0;" edge="1" parent="1" source="uJHjMDp_AKYHHKTmzJsR-6" target="uJHjMDp_AKYHHKTmzJsR-7">
          <mxGeometry relative="1" as="geometry" />
        </mxCell>
        <mxCell id="uJHjMDp_AKYHHKTmzJsR-6" value="Service" style="html=1;whiteSpace=wrap;" vertex="1" parent="1">
          <mxGeometry x="299" y="495" width="110" height="50" as="geometry" />
        </mxCell>
        <mxCell id="uJHjMDp_AKYHHKTmzJsR-23" style="edgeStyle=orthogonalEdgeStyle;rounded=0;orthogonalLoop=1;jettySize=auto;html=1;exitX=1;exitY=0.5;exitDx=0;exitDy=0;entryX=0;entryY=0.5;entryDx=0;entryDy=0;endArrow=none;endFill=0;" edge="1" parent="1" source="uJHjMDp_AKYHHKTmzJsR-7" target="uJHjMDp_AKYHHKTmzJsR-8">
          <mxGeometry relative="1" as="geometry" />
        </mxCell>
        <mxCell id="uJHjMDp_AKYHHKTmzJsR-7" value="Repository" style="html=1;whiteSpace=wrap;" vertex="1" parent="1">
          <mxGeometry x="464" y="495" width="110" height="50" as="geometry" />
        </mxCell>
        <mxCell id="uJHjMDp_AKYHHKTmzJsR-8" value="JPA" style="html=1;whiteSpace=wrap;" vertex="1" parent="1">
          <mxGeometry x="619" y="495" width="110" height="50" as="geometry" />
        </mxCell>
        <mxCell id="uJHjMDp_AKYHHKTmzJsR-20" style="edgeStyle=orthogonalEdgeStyle;rounded=0;orthogonalLoop=1;jettySize=auto;html=1;exitX=0.25;exitY=1;exitDx=0;exitDy=0;entryX=1;entryY=0.25;entryDx=0;entryDy=0;endArrow=none;endFill=0;" edge="1" parent="1" source="uJHjMDp_AKYHHKTmzJsR-9" target="uJHjMDp_AKYHHKTmzJsR-5">
          <mxGeometry relative="1" as="geometry" />
        </mxCell>
        <mxCell id="uJHjMDp_AKYHHKTmzJsR-21" style="edgeStyle=orthogonalEdgeStyle;rounded=0;orthogonalLoop=1;jettySize=auto;html=1;exitX=0.75;exitY=1;exitDx=0;exitDy=0;entryX=0;entryY=0.25;entryDx=0;entryDy=0;endArrow=none;endFill=0;" edge="1" parent="1" source="uJHjMDp_AKYHHKTmzJsR-9" target="uJHjMDp_AKYHHKTmzJsR-6">
          <mxGeometry relative="1" as="geometry" />
        </mxCell>
        <mxCell id="uJHjMDp_AKYHHKTmzJsR-9" value="Dto" style="html=1;whiteSpace=wrap;" vertex="1" parent="1">
          <mxGeometry x="189" y="425" width="110" height="50" as="geometry" />
        </mxCell>
        <mxCell id="uJHjMDp_AKYHHKTmzJsR-10" style="edgeStyle=orthogonalEdgeStyle;rounded=0;orthogonalLoop=1;jettySize=auto;html=1;exitX=0.5;exitY=1;exitDx=0;exitDy=0;" edge="1" parent="1" source="uJHjMDp_AKYHHKTmzJsR-7" target="uJHjMDp_AKYHHKTmzJsR-7">
          <mxGeometry relative="1" as="geometry" />
        </mxCell>
        <mxCell id="uJHjMDp_AKYHHKTmzJsR-12" value="Database server" style="verticalAlign=top;align=left;spacingTop=8;spacingLeft=2;spacingRight=12;shape=cube;size=10;direction=south;fontStyle=4;html=1;whiteSpace=wrap;" vertex="1" parent="1">
          <mxGeometry x="530" y="112.5" width="210" height="165" as="geometry" />
        </mxCell>
        <mxCell id="uJHjMDp_AKYHHKTmzJsR-13" value="PostgreSQL" style="verticalAlign=top;align=left;spacingTop=8;spacingLeft=2;spacingRight=12;shape=cube;size=10;direction=south;fontStyle=4;html=1;whiteSpace=wrap;" vertex="1" parent="1">
          <mxGeometry x="545" y="147.5" width="165" height="110" as="geometry" />
        </mxCell>
        <mxCell id="uJHjMDp_AKYHHKTmzJsR-14" value="LibraryDB" style="html=1;whiteSpace=wrap;" vertex="1" parent="1">
          <mxGeometry x="570" y="192.5" width="110" height="50" as="geometry" />
        </mxCell>
        <mxCell id="uJHjMDp_AKYHHKTmzJsR-15" style="edgeStyle=orthogonalEdgeStyle;rounded=0;orthogonalLoop=1;jettySize=auto;html=1;exitX=1.009;exitY=0.838;exitDx=0;exitDy=0;exitPerimeter=0;entryX=0.004;entryY=0.873;entryDx=0;entryDy=0;entryPerimeter=0;endArrow=none;endFill=0;" edge="1" parent="1" source="uJHjMDp_AKYHHKTmzJsR-1" target="uJHjMDp_AKYHHKTmzJsR-3">
          <mxGeometry relative="1" as="geometry" />
        </mxCell>
        <mxCell id="uJHjMDp_AKYHHKTmzJsR-16" value="Internet" style="edgeLabel;html=1;align=center;verticalAlign=middle;resizable=0;points=[];" vertex="1" connectable="0" parent="uJHjMDp_AKYHHKTmzJsR-15">
          <mxGeometry x="0.0458" y="2" relative="1" as="geometry">
            <mxPoint x="3" y="-14" as="offset" />
          </mxGeometry>
        </mxCell>
        <mxCell id="uJHjMDp_AKYHHKTmzJsR-17" style="edgeStyle=orthogonalEdgeStyle;rounded=0;orthogonalLoop=1;jettySize=auto;html=1;exitX=0.5;exitY=1;exitDx=0;exitDy=0;entryX=0.75;entryY=0;entryDx=0;entryDy=0;endArrow=none;endFill=0;dashed=1;" edge="1" parent="1" source="uJHjMDp_AKYHHKTmzJsR-2" target="uJHjMDp_AKYHHKTmzJsR-5">
          <mxGeometry relative="1" as="geometry">
            <Array as="points">
              <mxPoint x="195" y="340" />
              <mxPoint x="162" y="340" />
            </Array>
          </mxGeometry>
        </mxCell>
        <mxCell id="uJHjMDp_AKYHHKTmzJsR-18" value="Https" style="edgeLabel;html=1;align=center;verticalAlign=middle;resizable=0;points=[];" vertex="1" connectable="0" parent="uJHjMDp_AKYHHKTmzJsR-17">
          <mxGeometry x="-0.4037" y="1" relative="1" as="geometry">
            <mxPoint x="-1" y="11" as="offset" />
          </mxGeometry>
        </mxCell>
        <mxCell id="uJHjMDp_AKYHHKTmzJsR-24" style="edgeStyle=orthogonalEdgeStyle;rounded=0;orthogonalLoop=1;jettySize=auto;html=1;exitX=0;exitY=0.165;exitDx=0;exitDy=0;exitPerimeter=0;entryX=1.027;entryY=0.31;entryDx=0;entryDy=0;entryPerimeter=0;endArrow=none;endFill=0;" edge="1" parent="1" source="uJHjMDp_AKYHHKTmzJsR-3" target="uJHjMDp_AKYHHKTmzJsR-12">
          <mxGeometry relative="1" as="geometry" />
        </mxCell>
        <mxCell id="uJHjMDp_AKYHHKTmzJsR-25" value="Internet" style="edgeLabel;html=1;align=center;verticalAlign=middle;resizable=0;points=[];" vertex="1" connectable="0" parent="uJHjMDp_AKYHHKTmzJsR-24">
          <mxGeometry x="0.035" relative="1" as="geometry">
            <mxPoint as="offset" />
          </mxGeometry>
        </mxCell>
        <mxCell id="uJHjMDp_AKYHHKTmzJsR-26" style="edgeStyle=orthogonalEdgeStyle;rounded=0;orthogonalLoop=1;jettySize=auto;html=1;exitX=0.986;exitY=0.673;exitDx=0;exitDy=0;exitPerimeter=0;entryX=0;entryY=0.229;entryDx=0;entryDy=0;entryPerimeter=0;dashed=1;endArrow=none;endFill=0;" edge="1" parent="1" source="uJHjMDp_AKYHHKTmzJsR-13" target="uJHjMDp_AKYHHKTmzJsR-4">
          <mxGeometry relative="1" as="geometry" />
        </mxCell>
        <mxCell id="uJHjMDp_AKYHHKTmzJsR-27" value="DB connection" style="edgeLabel;html=1;align=center;verticalAlign=middle;resizable=0;points=[];" vertex="1" connectable="0" parent="uJHjMDp_AKYHHKTmzJsR-26">
          <mxGeometry x="-0.0442" relative="1" as="geometry">
            <mxPoint x="-5" as="offset" />
          </mxGeometry>
        </mxCell>
      </root>
    </mxGraphModel>
  </diagram>
</mxfile>
